<svg xmlns="http://www.w3.org/2000/svg" width="68.377" height="76.328" viewBox="0 0 68.377 76.328">
  <g id="Polygon_15" data-name="Polygon 15" transform="translate(68.377) rotate(90)" fill="#fff">
    <path d="M 66.10802459716797 67.87730407714844 L 10.22013759613037 67.87730407714844 C 8.248427391052246 67.87730407714844 6.475327968597412 66.86217498779297 5.477097988128662 65.16182708740234 C 4.478867530822754 63.46148300170898 4.456597805023193 61.41847610473633 5.417547702789307 59.69678497314453 L 33.36148834228516 9.63055419921875 C 34.34686660766602 7.865084648132324 36.14222717285156 6.811074256896973 38.16407775878906 6.811074256896973 C 40.18591690063477 6.811074256896973 41.98128890991211 7.865084648132324 42.96666717529297 9.63055419921875 L 70.91061401367188 59.69678497314453 C 71.87155914306641 61.41848373413086 71.84929656982422 63.46148300170898 70.85106658935547 65.16183471679688 C 69.85282897949219 66.86217498779297 68.07973480224609 67.87730407714844 66.10802459716797 67.87730407714844 Z" stroke="none"/>
    <path d="M 38.16407775878906 7.311073303222656 C 36.32602691650391 7.311073303222656 34.69387817382812 8.269264221191406 33.79808807373047 9.874244689941406 L 5.854148864746094 59.94047546386719 C 4.980560302734375 61.50564575195312 5.000801086425781 63.36292266845703 5.908279418945312 64.90869140625 C 6.815757751464844 66.45445251464844 8.427665710449219 67.37730407714844 10.22013092041016 67.37730407714844 L 66.10802459716797 67.37730407714844 C 67.90048980712891 67.37730407714844 69.51239013671875 66.45445251464844 70.41987609863281 64.90868377685547 C 71.32735443115234 63.36292266845703 71.34759521484375 61.50564575195312 70.47400665283203 59.94047546386719 L 42.53006744384766 9.874244689941406 C 41.6342658996582 8.269264221191406 40.00211715698242 7.311073303222656 38.16407775878906 7.311073303222656 M 38.1640739440918 6.311073303222656 C 40.21142578125 6.311073303222656 42.2587776184082 7.336341857910156 43.40326690673828 9.386871337890625 L 71.34720611572266 59.45310211181641 C 73.57941436767578 63.45247650146484 70.68815612792969 68.37730407714844 66.10802459716797 68.37730407714844 L 10.22013092041016 68.37730407714844 C 5.639984130859375 68.37730407714844 2.748741149902344 63.45247650146484 4.980949401855469 59.45310211181641 L 32.92488861083984 9.386871337890625 C 34.06937408447266 7.336341857910156 36.11672210693359 6.311073303222656 38.1640739440918 6.311073303222656 Z" stroke="none" fill="#707070"/>
  </g>
</svg>
