<svg xmlns="http://www.w3.org/2000/svg" width="97.895" height="39.223" viewBox="0 0 97.895 39.223">
  <g id="Group_6966" data-name="Group 6966" transform="translate(-279.631 -373.389)">
    <path id="Union_8" data-name="Union 8" d="M-1507.786,1763.723a3.751,3.751,0,0,1,3.733-3.767,3.75,3.75,0,0,1,3.733,3.767,3.751,3.751,0,0,1-3.733,3.768A3.752,3.752,0,0,1-1507.786,1763.723Zm44.051.669v-6.944h1.407v.914h.029a1.669,1.669,0,0,1,.637-.733,1.825,1.825,0,0,1,.985-.264,1.9,1.9,0,0,1,1.57.718,3.092,3.092,0,0,1,.573,1.982,3.12,3.12,0,0,1-.566,1.98,1.867,1.867,0,0,1-1.552.721,1.885,1.885,0,0,1-.989-.256,1.6,1.6,0,0,1-.637-.706h-.029v2.588Zm1.739-5.456a1.848,1.848,0,0,0-.318,1.129,1.847,1.847,0,0,0,.315,1.13,1,1,0,0,0,.842.423,1,1,0,0,0,.847-.42,1.841,1.841,0,0,0,.315-1.133,1.852,1.852,0,0,0-.315-1.135,1,1,0,0,0-.847-.422A1,1,0,0,0-1462,1758.936Zm12.546,3.3a1.935,1.935,0,0,1-.788-1.56h1.421a.935.935,0,0,0,.456.7,1.79,1.79,0,0,0,1,.266,1.661,1.661,0,0,0,.954-.251.752.752,0,0,0,.369-.642.66.66,0,0,0-.274-.552,2.4,2.4,0,0,0-.913-.352l-.918-.2q-1.939-.415-1.939-1.967a1.9,1.9,0,0,1,.754-1.562,3.039,3.039,0,0,1,1.94-.6,3.04,3.04,0,0,1,1.949.579,1.922,1.922,0,0,1,.747,1.541h-1.381a.906.906,0,0,0-.393-.7,1.537,1.537,0,0,0-.915-.256,1.482,1.482,0,0,0-.881.239.74.74,0,0,0-.335.63.621.621,0,0,0,.271.523,2.492,2.492,0,0,0,.881.341l.855.181a3.079,3.079,0,0,1,1.543.7,1.716,1.716,0,0,1,.483,1.282,1.957,1.957,0,0,1-.771,1.628,3.3,3.3,0,0,1-2.084.6A3.3,3.3,0,0,1-1449.451,1762.236Zm-30.146-.408a3.8,3.8,0,0,1-.905-2.69,3.741,3.741,0,0,1,.9-2.657,3.2,3.2,0,0,1,2.458-.967,3.294,3.294,0,0,1,2.085.664,2.6,2.6,0,0,1,1.011,1.733h-1.48a1.577,1.577,0,0,0-.589-.864,1.68,1.68,0,0,0-1.022-.313,1.64,1.64,0,0,0-1.367.63,2.776,2.776,0,0,0-.493,1.753,2.858,2.858,0,0,0,.515,1.8,1.682,1.682,0,0,0,1.4.659,1.71,1.71,0,0,0,1.179-.405,1.426,1.426,0,0,0,.481-1.059l.005-.113h-1.534v-1.075h2.969v.8a3.041,3.041,0,0,1-.828,2.261,3.124,3.124,0,0,1-2.3.82A3.228,3.228,0,0,1-1479.6,1761.828Zm64.138.508a1.617,1.617,0,0,1-.679-1.235h1.391a.751.751,0,0,0,.305.512,1.135,1.135,0,0,0,.676.181,1.171,1.171,0,0,0,.637-.149.463.463,0,0,0,.232-.408.391.391,0,0,0-.147-.32,1.277,1.277,0,0,0-.5-.2l-.967-.215q-1.5-.342-1.5-1.514a1.425,1.425,0,0,1,.6-1.2,2.6,2.6,0,0,1,1.606-.452,2.517,2.517,0,0,1,1.578.459,1.5,1.5,0,0,1,.61,1.22h-1.313a.658.658,0,0,0-.262-.5,1.013,1.013,0,0,0-.632-.181,1.023,1.023,0,0,0-.593.154.473.473,0,0,0-.222.408q0,.381.683.542l1,.215a2.348,2.348,0,0,1,1.13.51,1.223,1.223,0,0,1,.345.92,1.462,1.462,0,0,1-.644,1.24,2.8,2.8,0,0,1-1.685.469A2.718,2.718,0,0,1-1415.459,1762.336Zm-5.515-.264a2.761,2.761,0,0,1-.686-1.982,2.859,2.859,0,0,1,.683-2,2.367,2.367,0,0,1,1.841-.75,2.374,2.374,0,0,1,1.811.713,2.666,2.666,0,0,1,.674,1.909v.435h-3.608v.088a1.27,1.27,0,0,0,.329.91,1.141,1.141,0,0,0,.871.349,1.238,1.238,0,0,0,.674-.178.87.87,0,0,0,.381-.481h1.309a1.82,1.82,0,0,1-.769,1.243,2.693,2.693,0,0,1-1.619.471A2.481,2.481,0,0,1-1420.974,1762.072Zm1.079-3.364a1.262,1.262,0,0,0-.349.811h2.222a1.222,1.222,0,0,0-.325-.815,1.025,1.025,0,0,0-.774-.312A1.038,1.038,0,0,0-1419.895,1758.708Zm-6.521,3.357a2.794,2.794,0,0,1-.693-2,2.78,2.78,0,0,1,.7-1.99,2.457,2.457,0,0,1,1.873-.734,2.429,2.429,0,0,1,1.687.576,2.059,2.059,0,0,1,.691,1.484h-1.323a1.15,1.15,0,0,0-.335-.683.972.972,0,0,0-.7-.259.973.973,0,0,0-.837.427,2,2,0,0,0-.305,1.179,2.017,2.017,0,0,0,.305,1.192.98.98,0,0,0,.842.425,1,1,0,0,0,.693-.242,1.1,1.1,0,0,0,.338-.671h1.328a2.005,2.005,0,0,1-.7,1.48,2.482,2.482,0,0,1-1.674.552A2.476,2.476,0,0,1-1426.416,1762.065Zm-16.872.007a2.761,2.761,0,0,1-.686-1.982,2.86,2.86,0,0,1,.683-2,2.369,2.369,0,0,1,1.841-.75,2.378,2.378,0,0,1,1.812.713,2.665,2.665,0,0,1,.673,1.909v.435h-3.608v.088a1.27,1.27,0,0,0,.329.91,1.142,1.142,0,0,0,.872.349,1.237,1.237,0,0,0,.673-.178.869.869,0,0,0,.381-.481h1.309a1.817,1.817,0,0,1-.769,1.243,2.691,2.691,0,0,1-1.619.471A2.481,2.481,0,0,1-1443.289,1762.072Zm1.079-3.364a1.263,1.263,0,0,0-.349.811h2.222a1.218,1.218,0,0,0-.325-.815,1.025,1.025,0,0,0-.774-.312A1.038,1.038,0,0,0-1442.21,1758.708Zm-15.086,3.36a2.779,2.779,0,0,1-.7-2.007,2.747,2.747,0,0,1,.706-1.995,2.5,2.5,0,0,1,1.886-.73,2.5,2.5,0,0,1,1.89.73,2.754,2.754,0,0,1,.7,1.995,2.786,2.786,0,0,1-.7,2.011,2.511,2.511,0,0,1-1.9.723A2.5,2.5,0,0,1-1457.3,1762.068Zm1.057-3.208a2.046,2.046,0,0,0-.31,1.206,2.055,2.055,0,0,0,.307,1.211.979.979,0,0,0,.84.429.974.974,0,0,0,.835-.429,2.055,2.055,0,0,0,.308-1.211,2.059,2.059,0,0,0-.308-1.206.972.972,0,0,0-.835-.434A.978.978,0,0,0-1456.238,1758.859Zm-12.771,3.4a1.964,1.964,0,0,1-.513-1.434v-3.374h1.427v3.076a1.14,1.14,0,0,0,.251.8.938.938,0,0,0,.725.274.954.954,0,0,0,.752-.313,1.207,1.207,0,0,0,.278-.834v-3h1.427v5.234h-1.377v-.942h-.03a1.541,1.541,0,0,1-1.567,1.04A1.83,1.83,0,0,1-1469.009,1762.256Zm39.717.427v-5.234h1.426v5.234Zm-3.926,0-1.812-5.234h1.528l1.089,3.975h.03l1.084-3.975h1.49l-1.8,5.234Zm-5.015,0v-5.234h1.377v.943h.03a1.448,1.448,0,0,1,.458-.762,1.2,1.2,0,0,1,.787-.264,1.418,1.418,0,0,1,.405.054v1.255a1.374,1.374,0,0,0-.517-.083,1.078,1.078,0,0,0-.82.308,1.2,1.2,0,0,0-.293.859v2.924Zm-34.9,0v-5.234h1.377v.943h.029a1.444,1.444,0,0,1,.459-.762,1.2,1.2,0,0,1,.787-.264,1.418,1.418,0,0,1,.405.054v1.255a1.374,1.374,0,0,0-.518-.083,1.079,1.079,0,0,0-.821.308,1.2,1.2,0,0,0-.292.859v2.924Zm-35.1-8.554v-.056l-1.132-22.266v-.056c.056-1.941,3.054-3.483,5.374-3.483,2.208,0,5.206,1.484,5.319,3.368v.343l-1.186,22.047v.1a4.264,4.264,0,0,1-4.188,3.542A4.264,4.264,0,0,1-1508.237,1754.129Zm79.116,2.529a.7.7,0,0,1-.22-.523.7.7,0,0,1,.22-.525.749.749,0,0,1,.542-.212.751.751,0,0,1,.542.212.7.7,0,0,1,.22.525.7.7,0,0,1-.22.523.745.745,0,0,1-.542.214A.743.743,0,0,1-1429.121,1756.658Zm.239-7.45v-6.095h.724v.773h.018a1.591,1.591,0,0,1,.6-.624,1.678,1.678,0,0,1,.874-.229,1.754,1.754,0,0,1,1.417.646,2.594,2.594,0,0,1,.538,1.718,2.6,2.6,0,0,1-.535,1.715,1.733,1.733,0,0,1-1.4.649,1.712,1.712,0,0,1-.866-.22,1.515,1.515,0,0,1-.589-.6h-.018v2.267Zm1.12-5.036a1.951,1.951,0,0,0-.361,1.227,1.945,1.945,0,0,0,.361,1.228,1.143,1.143,0,0,0,.949.464,1.163,1.163,0,0,0,.968-.457,1.963,1.963,0,0,0,.355-1.235,1.961,1.961,0,0,0-.355-1.235,1.16,1.16,0,0,0-.968-.457A1.141,1.141,0,0,0-1427.761,1744.171Zm10.625,2.951a2.47,2.47,0,0,1-.58-1.724,2.474,2.474,0,0,1,.58-1.725,1.979,1.979,0,0,1,1.538-.639,1.971,1.971,0,0,1,1.534.639,2.471,2.471,0,0,1,.581,1.725,2.469,2.469,0,0,1-.581,1.723,1.967,1.967,0,0,1-1.534.642A1.977,1.977,0,0,1-1417.135,1747.122Zm.561-2.968a1.925,1.925,0,0,0-.363,1.244,1.94,1.94,0,0,0,.36,1.244,1.2,1.2,0,0,0,.98.448,1.189,1.189,0,0,0,.976-.446,1.932,1.932,0,0,0,.361-1.246,1.934,1.934,0,0,0-.361-1.246,1.189,1.189,0,0,0-.976-.446A1.191,1.191,0,0,0-1416.575,1744.154Zm-7.025,2.975a2.487,2.487,0,0,1-.562-1.714,2.553,2.553,0,0,1,.564-1.727,1.887,1.887,0,0,1,1.5-.654,1.831,1.831,0,0,1,1.46.619,2.451,2.451,0,0,1,.536,1.661v.29h-3.278v.044a1.506,1.506,0,0,0,.36,1.055,1.254,1.254,0,0,0,.976.4,1.321,1.321,0,0,0,.734-.2.933.933,0,0,0,.4-.527h.751a1.52,1.52,0,0,1-.631,1,2.079,2.079,0,0,1-1.272.391A1.959,1.959,0,0,1-1423.6,1747.13Zm.613-3.065a1.446,1.446,0,0,0-.384.942h2.482a1.393,1.393,0,0,0-.346-.945,1.127,1.127,0,0,0-.87-.365A1.165,1.165,0,0,0-1422.986,1744.064Zm-12.024,3.32a1.276,1.276,0,0,1-.419-.994,1.149,1.149,0,0,1,.433-.94,2.086,2.086,0,0,1,1.224-.4l1.31-.075v-.382a.835.835,0,0,0-.264-.654,1.063,1.063,0,0,0-.738-.238,1.209,1.209,0,0,0-.707.191.847.847,0,0,0-.347.535h-.738a1.349,1.349,0,0,1,.529-1,1.98,1.98,0,0,1,1.281-.393,1.9,1.9,0,0,1,1.277.4,1.355,1.355,0,0,1,.472,1.085v3.16h-.725v-.786h-.018a1.586,1.586,0,0,1-.606.628,1.662,1.662,0,0,1-.861.238A1.584,1.584,0,0,1-1435.01,1747.384Zm1.326-1.736a1.305,1.305,0,0,0-.715.224.62.62,0,0,0-.253.518.632.632,0,0,0,.251.523,1.036,1.036,0,0,0,.663.2,1.288,1.288,0,0,0,.907-.337,1.077,1.077,0,0,0,.367-.828v-.373Zm-6.23,1.468a2.6,2.6,0,0,1-.538-1.718,2.608,2.608,0,0,1,.536-1.716,1.731,1.731,0,0,1,1.4-.648,1.7,1.7,0,0,1,.866.22,1.51,1.51,0,0,1,.59.6h.017v-2.514h.765v6.341h-.73v-.774h-.013a1.643,1.643,0,0,1-.607.626,1.673,1.673,0,0,1-.87.227A1.757,1.757,0,0,1-1439.915,1747.116Zm.6-2.951a1.959,1.959,0,0,0-.356,1.233,1.957,1.957,0,0,0,.356,1.235,1.156,1.156,0,0,0,.962.457,1.148,1.148,0,0,0,.954-.464,1.944,1.944,0,0,0,.36-1.228,1.935,1.935,0,0,0-.363-1.229,1.15,1.15,0,0,0-.951-.464A1.153,1.153,0,0,0-1439.314,1744.165Zm-13.355,2.957a2.466,2.466,0,0,1-.581-1.724,2.47,2.47,0,0,1,.581-1.725,1.978,1.978,0,0,1,1.538-.639,1.974,1.974,0,0,1,1.534.639,2.471,2.471,0,0,1,.581,1.725,2.469,2.469,0,0,1-.581,1.723,1.969,1.969,0,0,1-1.534.642A1.975,1.975,0,0,1-1452.669,1747.122Zm.56-2.968a1.929,1.929,0,0,0-.362,1.244,1.934,1.934,0,0,0,.36,1.244,1.2,1.2,0,0,0,.98.448,1.189,1.189,0,0,0,.976-.446,1.931,1.931,0,0,0,.36-1.246,1.934,1.934,0,0,0-.36-1.246,1.189,1.189,0,0,0-.976-.446A1.193,1.193,0,0,0-1452.109,1744.154Zm-14.144,2.975a2.487,2.487,0,0,1-.562-1.714,2.549,2.549,0,0,1,.565-1.727,1.886,1.886,0,0,1,1.5-.654,1.828,1.828,0,0,1,1.459.619,2.451,2.451,0,0,1,.536,1.661v.29h-3.279v.044a1.507,1.507,0,0,0,.361,1.055,1.253,1.253,0,0,0,.976.4,1.317,1.317,0,0,0,.733-.2.925.925,0,0,0,.4-.527h.751a1.519,1.519,0,0,1-.63,1,2.083,2.083,0,0,1-1.273.391A1.961,1.961,0,0,1-1466.253,1747.13Zm.613-3.065a1.445,1.445,0,0,0-.384.942h2.483a1.4,1.4,0,0,0-.347-.945,1.125,1.125,0,0,0-.87-.365A1.165,1.165,0,0,0-1465.64,1744.064Zm-4.794,3.326a1.359,1.359,0,0,1-.547-.982h.765q.127.729,1.063.729a1.291,1.291,0,0,0,.732-.182.568.568,0,0,0,.271-.495.5.5,0,0,0-.16-.391,1.33,1.33,0,0,0-.544-.247l-.8-.206q-1.2-.308-1.2-1.244a1.176,1.176,0,0,1,.477-.965,1.925,1.925,0,0,1,1.228-.375,1.819,1.819,0,0,1,1.178.378,1.257,1.257,0,0,1,.5.958h-.73a.726.726,0,0,0-.3-.523,1.115,1.115,0,0,0-.675-.189,1.109,1.109,0,0,0-.672.187.578.578,0,0,0-.255.49q0,.466.76.66l.707.171a2.162,2.162,0,0,1,.973.455,1.053,1.053,0,0,1,.283.785,1.168,1.168,0,0,1-.509.977,2.132,2.132,0,0,1-1.309.381A1.972,1.972,0,0,1-1470.434,1747.391Zm-4.616-.261a2.487,2.487,0,0,1-.562-1.714,2.553,2.553,0,0,1,.564-1.727,1.888,1.888,0,0,1,1.506-.654,1.831,1.831,0,0,1,1.459.619,2.451,2.451,0,0,1,.536,1.661v.29h-3.278v.044a1.506,1.506,0,0,0,.36,1.055,1.254,1.254,0,0,0,.976.4,1.32,1.32,0,0,0,.734-.2.933.933,0,0,0,.4-.527h.751a1.52,1.52,0,0,1-.631,1,2.079,2.079,0,0,1-1.272.391A1.959,1.959,0,0,1-1475.051,1747.13Zm.613-3.065a1.444,1.444,0,0,0-.384.942h2.482a1.393,1.393,0,0,0-.347-.945,1.127,1.127,0,0,0-.87-.365A1.165,1.165,0,0,0-1474.438,1744.064Zm-5.62,3.052a2.6,2.6,0,0,1-.538-1.718,2.607,2.607,0,0,1,.536-1.716,1.733,1.733,0,0,1,1.4-.648,1.7,1.7,0,0,1,.866.22,1.513,1.513,0,0,1,.589.6h.018v-2.514h.764v6.341h-.729v-.774h-.014a1.642,1.642,0,0,1-.607.626,1.671,1.671,0,0,1-.87.227A1.755,1.755,0,0,1-1480.058,1747.116Zm.6-2.951a1.965,1.965,0,0,0-.355,1.233,1.963,1.963,0,0,0,.355,1.235,1.158,1.158,0,0,0,.963.457,1.147,1.147,0,0,0,.953-.464,1.945,1.945,0,0,0,.361-1.228,1.941,1.941,0,0,0-.363-1.229,1.152,1.152,0,0,0-.951-.464A1.154,1.154,0,0,0-1479.459,1744.165Zm60.17,3.518v-6.341h.764v6.341Zm-22.738,0v-4.57h.765v4.57Zm-3.1,0-1.683-4.57h.8l1.261,3.757h.018l1.265-3.757h.8l-1.679,4.57Zm-3.085,0v-6.341h.765v6.341Zm-7.744,0-1.683-4.57h.8l1.261,3.757h.018l1.265-3.757h.8l-1.678,4.57Zm-3.023,0v-2.83a1.232,1.232,0,0,0-.264-.85,1.007,1.007,0,0,0-.786-.292,1.124,1.124,0,0,0-.866.351,1.319,1.319,0,0,0-.325.932v2.689h-.765v-4.57h.721v.729h.018a1.426,1.426,0,0,1,.566-.595,1.739,1.739,0,0,1,.884-.213,1.511,1.511,0,0,1,1.165.45,1.744,1.744,0,0,1,.418,1.233v2.966Zm17-5.48a.457.457,0,0,1-.14-.334.455.455,0,0,1,.14-.337.462.462,0,0,1,.334-.139.468.468,0,0,1,.338.139.455.455,0,0,1,.14.337.457.457,0,0,1-.14.334.463.463,0,0,1-.338.14A.457.457,0,0,1-1441.977,1742.2Zm-2.174-4.819a1.273,1.273,0,0,1-.419-.994,1.15,1.15,0,0,1,.433-.941,2.086,2.086,0,0,1,1.224-.4l1.309-.075v-.383a.838.838,0,0,0-.264-.655,1.068,1.068,0,0,0-.738-.237,1.211,1.211,0,0,0-.708.191.85.85,0,0,0-.346.534h-.739a1.353,1.353,0,0,1,.53-1,1.98,1.98,0,0,1,1.281-.393,1.9,1.9,0,0,1,1.277.4,1.356,1.356,0,0,1,.472,1.085v3.16h-.724v-.787h-.018a1.582,1.582,0,0,1-.607.628,1.657,1.657,0,0,1-.861.238A1.583,1.583,0,0,1-1444.151,1737.384Zm1.325-1.736a1.306,1.306,0,0,0-.714.224.62.62,0,0,0-.253.518.634.634,0,0,0,.25.523,1.041,1.041,0,0,0,.664.2,1.294,1.294,0,0,0,.907-.337,1.077,1.077,0,0,0,.367-.828v-.374Zm-15.982,1.474a2.468,2.468,0,0,1-.581-1.724,2.471,2.471,0,0,1,.581-1.725,1.974,1.974,0,0,1,1.538-.639,1.97,1.97,0,0,1,1.534.639,2.474,2.474,0,0,1,.58,1.725,2.476,2.476,0,0,1-.58,1.723,1.97,1.97,0,0,1-1.534.642A1.974,1.974,0,0,1-1458.808,1737.122Zm.56-2.968a1.928,1.928,0,0,0-.363,1.244,1.933,1.933,0,0,0,.361,1.243,1.2,1.2,0,0,0,.98.449,1.19,1.19,0,0,0,.976-.446,1.939,1.939,0,0,0,.36-1.246,1.94,1.94,0,0,0-.36-1.247,1.189,1.189,0,0,0-.976-.445A1.193,1.193,0,0,0-1458.248,1734.154Zm-7.712,3.23a1.273,1.273,0,0,1-.419-.994,1.151,1.151,0,0,1,.432-.941,2.086,2.086,0,0,1,1.224-.4l1.309-.075v-.383a.836.836,0,0,0-.264-.655,1.067,1.067,0,0,0-.738-.237,1.21,1.21,0,0,0-.707.191.852.852,0,0,0-.347.534h-.738a1.349,1.349,0,0,1,.529-1,1.982,1.982,0,0,1,1.281-.393,1.9,1.9,0,0,1,1.276.4,1.354,1.354,0,0,1,.473,1.085v3.16h-.725v-.787h-.017a1.588,1.588,0,0,1-.607.628,1.657,1.657,0,0,1-.861.238A1.582,1.582,0,0,1-1465.961,1737.384Zm1.325-1.736a1.3,1.3,0,0,0-.714.224.617.617,0,0,0-.253.518.634.634,0,0,0,.25.523,1.039,1.039,0,0,0,.663.2,1.294,1.294,0,0,0,.908-.337,1.077,1.077,0,0,0,.366-.828v-.374Zm-8.466,1.736a1.273,1.273,0,0,1-.419-.994,1.15,1.15,0,0,1,.433-.941,2.086,2.086,0,0,1,1.224-.4l1.309-.075v-.383a.838.838,0,0,0-.264-.655,1.068,1.068,0,0,0-.738-.237,1.211,1.211,0,0,0-.708.191.851.851,0,0,0-.347.534h-.739a1.353,1.353,0,0,1,.53-1,1.98,1.98,0,0,1,1.281-.393,1.9,1.9,0,0,1,1.277.4,1.357,1.357,0,0,1,.472,1.085v3.16h-.724v-.787h-.018a1.582,1.582,0,0,1-.607.628,1.657,1.657,0,0,1-.861.238A1.583,1.583,0,0,1-1473.1,1737.384Zm1.325-1.736a1.306,1.306,0,0,0-.714.224.62.62,0,0,0-.253.518.632.632,0,0,0,.251.523,1.036,1.036,0,0,0,.663.2,1.294,1.294,0,0,0,.907-.337,1.078,1.078,0,0,0,.367-.828v-.374Zm3.472,1.788a1.338,1.338,0,0,1-.268-.94v-2.755h-.681v-.628h.681v-1.1h.765v1.1h.887v.628h-.887v2.715a.66.66,0,0,0,.136.46.561.561,0,0,0,.43.147,2,2,0,0,0,.317-.022v.642a2.35,2.35,0,0,1-.483.035A1.2,1.2,0,0,1-1468.305,1737.437Zm22.183.247v-2.98a1.021,1.021,0,0,0-.248-.732.918.918,0,0,0-.7-.261.987.987,0,0,0-.743.3,1.063,1.063,0,0,0-.29.767v2.905h-.764v-3.064a.878.878,0,0,0-.256-.661.933.933,0,0,0-.681-.248.983.983,0,0,0-.749.316,1.113,1.113,0,0,0-.3.791v2.866h-.764v-4.57h.721v.729h.017a1.339,1.339,0,0,1,.506-.591,1.428,1.428,0,0,1,.791-.217,1.386,1.386,0,0,1,.8.226,1.262,1.262,0,0,1,.483.644h.018a1.442,1.442,0,0,1,.569-.639,1.632,1.632,0,0,1,.864-.23,1.463,1.463,0,0,1,1.083.406,1.47,1.47,0,0,1,.407,1.088v3.155Zm-8.266,0v-4.57h.72v.747h.018a1.14,1.14,0,0,1,.411-.6,1.129,1.129,0,0,1,.7-.221,2.45,2.45,0,0,1,.308.031v.743a1.321,1.321,0,0,0-.409-.044.917.917,0,0,0-.712.294,1.115,1.115,0,0,0-.268.779v2.848Zm-7.044,0v-3.942h-.637v-.628h.637v-.51a1.353,1.353,0,0,1,.31-.977,1.259,1.259,0,0,1,.942-.319,2.958,2.958,0,0,1,.466.035v.619a2.545,2.545,0,0,0-.347-.026q-.61,0-.611.672v.506h.936v.628h-.932v3.942Zm-13.7,0v-6.341h.765v6.341Zm-5.12,0v-6.341h2.264a1.981,1.981,0,0,1,1.462.569,1.986,1.986,0,0,1,.569,1.466,1.992,1.992,0,0,1-.572,1.472,1.987,1.987,0,0,1-1.468.572h-1.463v2.263Zm.791-2.966h1.266a1.469,1.469,0,0,0,1.05-.354,1.3,1.3,0,0,0,.373-.986,1.285,1.285,0,0,0-.372-.983,1.476,1.476,0,0,0-1.052-.349h-1.266Z" transform="translate(1789 -1354.879)" fill="#fff"/>
  </g>
</svg>
