<svg xmlns="http://www.w3.org/2000/svg" width="251.265" height="37.001" viewBox="0 0 251.265 37.001">
  <g id="Group_6404" data-name="Group 6404" transform="translate(-261.004 -187.274)">
    <g id="MARCA_RGB_BRANCO__TAG_01" transform="translate(261.004 187.274)">
      <path id="Path_4742" data-name="Path 4742" d="M81.57,189.5c5.435,0,11.459-2.392,11.459-7.708,0-8.2-10.938-8.139-10.938-11.782,0-1.078.777-1.618,2.278-1.618a15.484,15.484,0,0,1,6.276,1.971l1.506-5.511a.691.691,0,0,0-.415-.835,20.327,20.327,0,0,0-7.557-1.559c-5.739,0-9.5,2.991-9.5,7.532,0,7.864,11.063,8.479,11.063,11.957,0,1.2-1.019,1.8-2.57,1.8a18.722,18.722,0,0,1-7.137-2.091.69.69,0,0,0-.961.379L73.3,186.92C76.151,188.629,78.17,189.49,81.57,189.5Z" transform="translate(-73.3 -158.434)" fill="#fff" fill-rule="evenodd"/>
      <path id="Path_4743" data-name="Path 4743" d="M459.278,148c-2.189,0-5.2,1.456-5.1,3.269l1.094,21.124a4.051,4.051,0,0,0,8.006,0l1.094-21.124C464.486,149.186,460.938,148,459.278,148Zm0,37a3.548,3.548,0,1,0-3.547-3.548A3.547,3.547,0,0,0,459.278,185Z" transform="translate(-348.116 -148)" fill="#fff" fill-rule="evenodd"/>
      <path id="Path_4745" data-name="Path 4745" d="M170.17,162.56c-8.011,0-13.33,5.377-13.33,13.508,0,8.847,6.034,13.564,13.566,13.564a21.719,21.719,0,0,0,11.358-3.28l-.986-3.436a.7.7,0,0,0-.927-.457,20.787,20.787,0,0,1-7.6,1.559c-4.542,0-7.71-2.392-8.075-5.739h18.359a.682.682,0,0,0,.685-.588c1.392-8.354-4.107-15.126-13.054-15.126ZM164.2,174.1c.237-2.932,2.147-5.714,5.569-5.739,3.311-.025,5.661,1.949,5.99,4.97a.679.679,0,0,1-.682.768Z" transform="translate(-133.578 -158.506)" fill="#fff" fill-rule="evenodd"/>
      <path id="Path_4746" data-name="Path 4746" d="M279.352,166.161v-2.228a.693.693,0,0,0-.691-.691H271.77V189h7.582V171.493a.679.679,0,0,1,.237-.521c1.9-1.651,4.642-2.462,8.368-2.055v-5.63a.693.693,0,0,0-.724-.7A10.905,10.905,0,0,0,279.352,166.161Z" transform="translate(-216.505 -158.526)" fill="#fff" fill-rule="evenodd"/>
      <path id="Path_4747" data-name="Path 4747" d="M361.806,165.34l-4.734,11.166a.7.7,0,0,1-1.281,0l-4.734-11.166a.685.685,0,0,0-.64-.42H342.67l12.664,26.027a.679.679,0,0,0,.624.39h.927a.685.685,0,0,0,.624-.39l12.664-26.027h-7.727A.682.682,0,0,0,361.806,165.34Z" transform="translate(-267.662 -160.208)" fill="#fff" fill-rule="evenodd"/>
      <path id="Path_4748" data-name="Path 4748" d="M519.58,189.613c3.166,0,6.4-.894,8.248-2.336l-2.228-3.96a.7.7,0,0,0-.9-.279,10.091,10.091,0,0,1-4.4.944c-3.943,0-6.683-3.227-6.683-7.944s2.748-7.889,6.683-7.889a10.693,10.693,0,0,1,4.962,1.434l2.258-4.155a.688.688,0,0,0-.262-.927,16.139,16.139,0,0,0-7.674-1.971c-8.075,0-13.45,5.012-13.45,13.625C506.13,184.2,511.535,189.613,519.58,189.613Z" transform="translate(-385.605 -158.484)" fill="#fff" fill-rule="evenodd"/>
      <path id="Path_4749" data-name="Path 4749" d="M609,162.56c-8.014,0-13.33,5.377-13.33,13.508,0,8.847,6.034,13.564,13.566,13.564a21.719,21.719,0,0,0,11.358-3.28l-.985-3.436a.7.7,0,0,0-.927-.457,20.789,20.789,0,0,1-7.6,1.554c-4.542,0-7.71-2.392-8.075-5.739H621.38a.68.68,0,0,0,.682-.588c1.462-8.331-4.193-15.126-13.051-15.126ZM603.027,174.1c.234-2.932,2.147-5.714,5.569-5.739,3.311-.025,5.661,1.949,5.99,4.97a.68.68,0,0,1-.682.768Z" transform="translate(-450.212 -158.506)" fill="#fff" fill-rule="evenodd"/>
      <path id="Path_4750" data-name="Path 4750" d="M712.248,189.53c5.435,0,11.47-2.392,11.47-7.708,0-8.2-10.938-8.139-10.938-11.782,0-1.078.777-1.618,2.275-1.618a15.508,15.508,0,0,1,6.279,1.971l1.506-5.511a.688.688,0,0,0-.412-.835,20.327,20.327,0,0,0-7.568-1.548c-5.739,0-9.507,2.991-9.507,7.532,0,7.864,11.063,8.479,11.063,11.957,0,1.2-1.019,1.8-2.567,1.8a18.708,18.708,0,0,1-7.137-2.091.688.688,0,0,0-.961.379L704,186.943C706.807,188.636,708.909,189.53,712.248,189.53Z" transform="translate(-528.377 -158.462)" fill="#fff" fill-rule="evenodd"/>
    </g>
    <text id="PAY" transform="translate(464.269 206.525)" fill="#3c98fa" font-size="22" font-family="GRUPO_SERVICES_DEMIROUNDED, GRUPO SERVICES" letter-spacing="0.08em"><tspan x="0" y="0">PAY</tspan></text>
  </g>
</svg>
