<svg id="MARCA_RGB_BRANCO__TAG_01" xmlns="http://www.w3.org/2000/svg" width="85.425" height="25.514" viewBox="0 0 85.425 25.514">
  <path id="Path_4742" data-name="Path 4742" d="M76.917,174.393c2.377,0,5.011-1.056,5.011-3.4,0-3.618-4.783-3.592-4.783-5.2,0-.476.34-.714,1-.714a6.727,6.727,0,0,1,2.745.87l.659-2.432a.305.305,0,0,0-.181-.369,8.82,8.82,0,0,0-3.3-.688c-2.51,0-4.156,1.32-4.156,3.324,0,3.47,4.838,3.742,4.838,5.277,0,.528-.446.793-1.124.793a8.131,8.131,0,0,1-3.121-.923.3.3,0,0,0-.247-.012.3.3,0,0,0-.173.179l-.774,2.157A6.237,6.237,0,0,0,76.917,174.393Z" transform="translate(-73.298 -151.499)" fill="#fff" fill-rule="evenodd"/>
  <path id="Path_4743" data-name="Path 4743" d="M456.405,148c-.957,0-2.273.643-2.232,1.443l.479,9.322a1.769,1.769,0,0,0,3.5,0l.479-9.322C458.682,148.523,457.131,148,456.405,148Zm0,16.328a1.566,1.566,0,1,0-1.551-1.566,1.559,1.559,0,0,0,1.551,1.566Z" transform="translate(-407.791 -138.816)" fill="#fff" fill-rule="evenodd"/>
  <path id="Path_4744" data-name="Path 4744" d="M76.168,79.036c-.929,0-1.461-.187-1.461-.747a.731.731,0,0,1,.656-.748,3.21,3.21,0,0,0,.771.086,2.173,2.173,0,0,0,2.454-2.171,2,2,0,0,0-.731-1.626l.9.071.044-.64-1.968.1a3.5,3.5,0,0,0-.7-.074,2.164,2.164,0,0,0-2.455,2.16,2.038,2.038,0,0,0,1,1.832,1.192,1.192,0,0,0-.715,1.106,1.054,1.054,0,0,0,.413.86,1.486,1.486,0,0,0-1.1,1.569c0,1.253.844,1.859,2.812,1.859,2.027,0,2.882-.646,2.882-1.9,0-2.025-2.818-1.744-2.808-1.744Zm-.045-5.087a1.665,1.665,0,1,1-.006,0Zm-.015,8.039c-1.57,0-2.012-.461-2.012-1.193,0-.762.427-1.078,2.057-1.078s2.026.316,2.026,1.037c0,1.421-2.07,1.229-2.07,1.229ZM81.3,75.071a2.213,2.213,0,0,1,2.055-1.052v-.737A2.549,2.549,0,0,0,81.3,74.306v-.9h-.829v6.051H81.3Zm5.584,4.51a2.474,2.474,0,0,0,1.842-.892v.763h.829V73.4h-.829v4.67a2.327,2.327,0,0,1-1.628.837c-.974,0-1.526-.648-1.526-2.046V73.4h-.829v3.529C84.743,78.35,85.322,79.571,86.884,79.581Zm7.564-6.3a3.007,3.007,0,0,0-1.883.692V73.4h-.835v9.144h.829V78.916a3.1,3.1,0,0,0,1.884.661,3.153,3.153,0,0,0,0-6.292Zm-.055,5.62a2.593,2.593,0,0,1-1.827-.822V74.741a2.637,2.637,0,0,1,1.827-.763,2.486,2.486,0,0,1,0,4.928Zm7.149.676a3.017,3.017,0,1,0-.006,0Zm0-.676a2.192,2.192,0,1,0-.006,0Z" transform="translate(-73.28 -73.26)" fill="#fff" fill-rule="evenodd"/>
  <path id="Path_4745" data-name="Path 4745" d="M162.669,162.56c-3.5,0-5.829,2.373-5.829,5.961a5.6,5.6,0,0,0,5.933,5.986,9.435,9.435,0,0,0,4.967-1.448l-.431-1.516a.308.308,0,0,0-.159-.191.3.3,0,0,0-.247-.01,9.019,9.019,0,0,1-3.323.688c-1.986,0-3.372-1.056-3.531-2.533h8.028a.3.3,0,0,0,.3-.259,5.5,5.5,0,0,0-5.709-6.675Zm-2.612,5.092a2.528,2.528,0,0,1,2.435-2.533,2.432,2.432,0,0,1,2.619,2.193.3.3,0,0,1-.072.238.3.3,0,0,1-.226.1Z" transform="translate(-146.665 -151.586)" fill="#fff" fill-rule="evenodd"/>
  <path id="Path_4746" data-name="Path 4746" d="M275.086,164.164v-.983a.3.3,0,0,0-.3-.3H271.77v11.367h3.316v-7.726a.3.3,0,0,1,.1-.23,4.567,4.567,0,0,1,3.659-.907V162.9a.307.307,0,0,0-.093-.223.3.3,0,0,0-.224-.086A4.75,4.75,0,0,0,275.086,164.164Z" transform="translate(-247.6 -151.611)" fill="#fff" fill-rule="evenodd"/>
  <path id="Path_4747" data-name="Path 4747" d="M351.038,165.105l-2.07,4.928a.3.3,0,0,1-.56,0l-2.07-4.928a.3.3,0,0,0-.28-.186H342.67l5.538,11.486a.3.3,0,0,0,.273.172h.406a.3.3,0,0,0,.273-.172L354.7,164.92h-3.379A.3.3,0,0,0,351.038,165.105Z" transform="translate(-309.866 -153.656)" fill="#fff" fill-rule="evenodd"/>
  <path id="Path_4748" data-name="Path 4748" d="M512.012,174.482a6.2,6.2,0,0,0,3.607-1.031l-.974-1.747a.3.3,0,0,0-.395-.123,4.379,4.379,0,0,1-1.925.417c-1.724,0-2.923-1.424-2.923-3.506s1.2-3.481,2.923-3.481a4.645,4.645,0,0,1,2.17.633l.988-1.833a.3.3,0,0,0-.114-.409,7.007,7.007,0,0,0-3.356-.87c-3.531,0-5.882,2.212-5.882,6.013A5.6,5.6,0,0,0,512.012,174.482Z" transform="translate(-453.422 -151.56)" fill="#fff" fill-rule="evenodd"/>
  <path id="Path_4749" data-name="Path 4749" d="M601.5,162.56c-3.5,0-5.829,2.373-5.829,5.961a5.6,5.6,0,0,0,5.933,5.986,9.435,9.435,0,0,0,4.967-1.448l-.431-1.516a.308.308,0,0,0-.159-.191.3.3,0,0,0-.247-.01,9.019,9.019,0,0,1-3.326.686c-1.986,0-3.372-1.056-3.531-2.533h8.037a.3.3,0,0,0,.3-.259,5.509,5.509,0,0,0-5.707-6.675Zm-2.612,5.092a2.527,2.527,0,0,1,2.435-2.533,2.432,2.432,0,0,1,2.619,2.193.3.3,0,0,1-.072.238.3.3,0,0,1-.226.1Z" transform="translate(-532.059 -151.586)" fill="#fff" fill-rule="evenodd"/>
  <path id="Path_4750" data-name="Path 4750" d="M707.607,174.428c2.377,0,5.016-1.056,5.016-3.4,0-3.618-4.783-3.592-4.783-5.2,0-.476.34-.714.995-.714a6.738,6.738,0,0,1,2.746.87l.659-2.432a.3.3,0,0,0-.18-.369,8.819,8.819,0,0,0-3.31-.683c-2.51,0-4.157,1.32-4.157,3.324,0,3.47,4.838,3.742,4.838,5.277,0,.528-.446.793-1.123.793a8.126,8.126,0,0,1-3.121-.923.3.3,0,0,0-.247-.012.3.3,0,0,0-.173.179L704,173.287A6.244,6.244,0,0,0,707.607,174.428Z" transform="translate(-627.197 -151.534)" fill="#fff" fill-rule="evenodd"/>
</svg>
