<svg xmlns="http://www.w3.org/2000/svg" width="209" height="209" viewBox="0 0 209 209">
  <g id="Group_9653" data-name="Group 9653" transform="translate(-1280 -2180)">
    <g id="Group_9653-2" data-name="Group 9653" transform="translate(-121 -982)">
      <g id="Group_9650" data-name="Group 9650" transform="translate(0 16)">
        <rect id="Rectangle_2110" data-name="Rectangle 2110" width="209" height="209" rx="15" transform="translate(1401 3146)" fill="#3c98fa"/>
      </g>
    </g>
    <g id="noun_success_3113542" transform="translate(1326 2226)">
      <g id="Layer_23" data-name="Layer 23" transform="translate(2 2)">
        <path id="Path_8670" data-name="Path 8670" d="M87.571,37.463a4.034,4.034,0,0,1,0,5.729L51.261,79.5a4.034,4.034,0,0,1-2.864,1.17h-.242a4.034,4.034,0,0,1-2.9-1.533L29.112,58.967a4.034,4.034,0,1,1,6.294-5L48.719,70.586,81.842,37.463a4.034,4.034,0,0,1,5.729,0Zm27.394,21.02A56.483,56.483,0,1,1,58.483,2a56.482,56.482,0,0,1,56.483,56.483Zm-8.069,0A48.414,48.414,0,1,0,58.483,106.9,48.414,48.414,0,0,0,106.9,58.483Z" transform="translate(-2 -2)" fill="#fff"/>
      </g>
    </g>
  </g>
</svg>
