<svg xmlns="http://www.w3.org/2000/svg" xmlns:xlink="http://www.w3.org/1999/xlink" width="209" height="209" viewBox="0 0 209 209">
  <defs>
    <linearGradient id="linear-gradient" x1="0.821" y1="0.104" x2="0.5" y2="1" gradientUnits="objectBoundingBox">
      <stop offset="0" stop-color="#fff"/>
      <stop offset="1" stop-color="#f4f4f4"/>
    </linearGradient>
  </defs>
  <g id="Group_9647" data-name="Group 9647" transform="translate(-405 -3186)">
    <g id="Rectangle_2107" data-name="Rectangle 2107" transform="translate(405 3186)" stroke="#e8ebef" stroke-width="2" fill="url(#linear-gradient)">
      <rect width="209" height="209" rx="39" stroke="none"/>
      <rect x="1" y="1" width="207" height="207" rx="38" fill="none"/>
    </g>
    <g id="Group_6090" data-name="Group 6090" transform="translate(24 -38)">
      <g id="Rectangle_2108" data-name="Rectangle 2108" transform="translate(408 3272)" fill="#fff" stroke="#e8ebef" stroke-width="2">
        <path d="M15,0H180a0,0,0,0,1,0,0V67a0,0,0,0,1,0,0H15A15,15,0,0,1,0,52V15A15,15,0,0,1,15,0Z" stroke="none"/>
        <path d="M15,1H179a0,0,0,0,1,0,0V66a0,0,0,0,1,0,0H15A14,14,0,0,1,1,52V15A14,14,0,0,1,15,1Z" fill="none"/>
      </g>
      <g id="Group_6094" data-name="Group 6094" transform="translate(0 -3)">
        <circle id="Ellipse_77" data-name="Ellipse 77" cx="5" cy="5" r="5" transform="translate(475 3304)"/>
        <circle id="Ellipse_77-2" data-name="Ellipse 77" cx="5" cy="5" r="5" transform="translate(496 3304)"/>
        <circle id="Ellipse_77-3" data-name="Ellipse 77" cx="5" cy="5" r="5" transform="translate(515 3304)"/>
        <circle id="Ellipse_77-4" data-name="Ellipse 77" cx="5" cy="5" r="5" transform="translate(536 3304)"/>
        <circle id="Ellipse_77-5" data-name="Ellipse 77" cx="5" cy="5" r="5" transform="translate(556 3304)"/>
      </g>
      <g id="noun_Lock_794098" transform="translate(429 3292)">
        <g id="Group_6089" data-name="Group 6089" transform="translate(0)">
          <path id="Path_8664" data-name="Path 8664" d="M10.354,11A1.28,1.28,0,0,0,9,12.354v2.709a1.28,1.28,0,0,0,1.354,1.354,1.28,1.28,0,0,0,1.354-1.354V12.354A1.28,1.28,0,0,0,10.354,11Z" transform="translate(-0.873 3.899)" fill="#bfc4cc"/>
          <path id="Path_8665" data-name="Path 8665" d="M19.253,10.971v-4.2A6.706,6.706,0,0,0,12.481,0,6.706,6.706,0,0,0,5.709,6.772v4.2A9.791,9.791,0,0,0,3,17.608a9.481,9.481,0,1,0,18.962,0A9.791,9.791,0,0,0,19.253,10.971ZM12.481,2.709a3.991,3.991,0,0,1,4.063,4.063v2.3a9.954,9.954,0,0,0-4.063-.948,9.954,9.954,0,0,0-4.063.948v-2.3A3.991,3.991,0,0,1,12.481,2.709Zm0,21.671a6.772,6.772,0,0,1,0-13.544,6.772,6.772,0,0,1,0,13.544Z" transform="translate(-3)" fill="#bfc4cc"/>
        </g>
      </g>
    </g>
    <g id="noun_Next_1153693" transform="translate(523.836 3305.836)">
      <g id="Group_6092" data-name="Group 6092" transform="translate(20 67.164) rotate(-90)">
        <g id="Group_6091" data-name="Group 6091" transform="translate(0)">
          <path id="Path_8666" data-name="Path 8666" d="M23.582,47.164A23.582,23.582,0,1,1,47.164,23.582,23.582,23.582,0,0,1,23.582,47.164Zm.537-35.143a.774.774,0,0,0-1.1,0l-9.411,9.5a.786.786,0,1,0,1.11,1.111l7.524-7.534c.307-.307.555-.2.555.223V34.281a.785.785,0,0,0,1.57,0V15.317c0-.43.251-.528.555-.223l7.524,7.534a.786.786,0,1,0,1.11-1.111Z" transform="translate(47.164 47.164) rotate(180)" fill="#307aff" fill-rule="evenodd"/>
        </g>
      </g>
    </g>
    <g id="Rectangle_2109" data-name="Rectangle 2109" transform="translate(405 3186)" fill="none" stroke="#cecece" stroke-width="10">
      <rect width="209" height="209" rx="15" stroke="none"/>
      <rect x="5" y="5" width="199" height="199" rx="10" fill="none"/>
    </g>
  </g>
</svg>
